PathFileType	4	(X/Y/Z)	C:\Users\dbl\Desktop\20210112\20210112\bx_n_5_502.trc
DataRate	CameraRate	NumFrames	NumMarkers	Units	OrigDataRate	OrigDataStartFrame	OrigNumFrames
50.00	50.00	       8	43	mm	50.00	245	       489
Frame#	Time	Top.Head			R.Acromium			L.Acromium			Sternum			R.ASIS			L.ASIS			V.Sacral			R.Thigh.Upper			R.Thigh.Front			R.Thigh.Rear			R.Knee.Lat			R.Knee.Med			R.Shank.Upper			R.Shank.Front			R.Shank.Rear			R.Ankle.Lat			R.Midfoot.Lat			R.Toe.Lat			R.Toe.Tip			R.Toe.Med			R.Ankle.Med			R.Midfoot.Sup			R.Heel			L.Thigh.Upper			L.Thigh.Front			L.Thigh.Rear			L.Knee.Lat			L.Knee.Med			L.Shank.Upper			L.Shank.Front			L.Shank.Rear			L.Ankle.Lat			L.Midfoot.Lat			L.Toe.Lat			L.Toe.Tip			L.Toe.Med			L.Ankle.Med			L.Midfoot.Sup			L.Heel			origin1 front left			origin2 front right			origin 3 back right			origin 4 back leftt			
		X1	Y1	Z1	X2	Y2	Z2	X3	Y3	Z3	X4	Y4	Z4	X5	Y5	Z5	X6	Y6	Z6	X7	Y7	Z7	X8	Y8	Z8	X9	Y9	Z9	X10	Y10	Z10	X11	Y11	Z11	X12	Y12	Z12	X13	Y13	Z13	X14	Y14	Z14	X15	Y15	Z15	X16	Y16	Z16	X17	Y17	Z17	X18	Y18	Z18	X19	Y19	Z19	X20	Y20	Z20	X21	Y21	Z21	X22	Y22	Z22	X23	Y23	Z23	X24	Y24	Z24	X25	Y25	Z25	X26	Y26	Z26	X27	Y27	Z27	X28	Y28	Z28	X29	Y29	Z29	X30	Y30	Z30	X31	Y31	Z31	X32	Y32	Z32	X33	Y33	Z33	X34	Y34	Z34	X35	Y35	Z35	X36	Y36	Z36	X37	Y37	Z37	X38	Y38	Z38	X39	Y39	Z39	X40	Y40	Z40	X41	Y41	Z41	X42	Y42	Z42	X43	Y43	Z43	

245	4.880	-738.73907	108.87173	1845.26465	-713.26923	-66.73512	1534.83215	-722.64001	288.72705	1542.01794	-609.30890	111.66862	1361.14685	-570.62048	-3.81960	1080.87024	-605.36285	251.30417	1067.22693	-798.72260	99.68312	1053.94678	-657.69031	-67.03783	875.50629	-581.66827	-1.31152	806.99902	-679.46558	-56.08937	760.72919	-703.04340	-32.71102	618.28937	-686.79803	76.21352	574.00696	-709.87158	-30.61225	570.60437	-660.78345	16.75459	520.21100	-754.47803	-42.84244	491.02518	-759.02728	-21.10259	207.92734	-648.46747	-68.32081	161.52458	-605.56866	-73.35153	158.12627	-547.84753	-24.41458	162.71396	-599.81708	27.27996	168.35713	-718.99768	69.03217	216.68646	-674.67450	52.33052	160.23537	-793.36041	37.22655	174.34392	-685.40161	289.57089	874.55750	-588.83618	228.82961	794.52649	-694.47534	274.69339	745.40533	-725.96655	256.26373	644.24615	-691.83673	149.08279	577.35864	-729.46967	252.45958	576.92029	-676.18024	211.01724	535.61255	-769.68463	261.82300	503.10596	-768.78888	229.41435	205.24904	-659.84448	298.19864	157.20792	-623.69202	306.64670	158.62599	-556.78485	255.87399	163.73860	-592.85583	218.51897	173.98297	-712.75848	155.24045	218.26276	-676.02716	173.82635	159.18204	-796.44189	180.22746	184.22083	-528.06677	304.56650	146.66994	-517.51929	-72.72203	143.36894	-875.91046	-78.65208	141.39345	-882.55914	296.20752	144.79056	
246	4.900	-736.23102	108.52417	1845.43176	-711.92487	-67.05611	1534.86816	-721.50732	288.44067	1542.01831	-608.41296	111.40388	1361.05518	-571.00745	-3.79404	1080.56177	-605.08453	251.09277	1067.45947	-798.44983	99.38962	1054.02917	-657.44757	-67.24218	875.46326	-581.48846	-1.39645	806.92285	-679.30774	-56.26414	760.69159	-702.91937	-32.94418	618.27740	-686.84235	76.04939	573.98523	-709.84674	-30.72534	570.54022	-660.78925	16.62717	520.19208	-754.46838	-42.91189	490.98837	-759.05969	-21.09146	207.90569	-648.50330	-68.33029	161.51903	-605.55005	-73.33241	158.10719	-547.86481	-24.42493	162.69580	-599.84259	27.27603	168.33511	-718.97479	69.06792	216.74428	-674.69269	52.31452	160.20775	-793.41614	37.20740	174.41428	-685.29395	289.21216	874.51233	-588.60120	228.72716	794.50439	-694.38947	274.67181	745.45819	-725.81525	256.08005	644.28149	-691.70386	149.04256	577.33557	-729.36871	252.25249	576.98914	-676.10162	210.85667	535.53455	-769.59680	261.67993	503.11975	-768.77698	229.36911	205.27333	-659.87811	298.18646	157.19754	-623.70123	306.63495	158.63393	-556.79797	255.88026	163.76173	-592.85950	218.50058	173.96475	-712.71533	155.14125	218.20561	-676.02448	173.81859	159.17046	-796.46552	180.20348	184.24107	-528.09027	304.55579	146.66443	-517.52094	-72.71848	143.37515	-875.92029	-78.67021	141.40352	-882.55542	296.23196	144.81512	
247	4.920	-733.59863	108.18044	1845.61353	-710.55054	-67.37373	1534.90137	-720.30847	288.15820	1542.01685	-607.49634	111.13967	1360.93494	-571.47729	-3.77071	1080.22327	-604.81470	250.81540	1067.68286	-798.18793	99.08168	1054.16089	-657.23462	-67.46164	875.45392	-581.37079	-1.47052	806.86511	-679.21838	-56.42622	760.65466	-702.85486	-33.13873	618.26031	-686.91217	75.86288	573.96136	-709.84833	-30.81343	570.49274	-660.82672	16.48613	520.16266	-754.45111	-43.01515	490.92953	-759.06598	-21.09368	207.90085	-648.54071	-68.34171	161.50798	-605.52356	-73.32333	158.10269	-547.87628	-24.43176	162.67581	-599.86371	27.27834	168.31169	-718.98804	69.06094	216.75415	-674.70911	52.32121	160.20645	-793.48462	37.19507	174.50871	-685.18433	288.81744	874.45514	-588.39319	228.59880	794.47034	-694.29279	274.60916	745.51105	-725.69330	255.90434	644.29761	-691.57428	149.01631	577.31476	-729.26056	252.05246	577.07434	-676.01099	210.67540	535.48450	-769.47418	261.51160	503.07889	-768.76282	229.32652	205.28436	-659.91382	298.17178	157.18292	-623.70953	306.62009	158.63690	-556.80664	255.89052	163.78285	-592.84094	218.46960	173.95329	-712.70471	155.05351	218.14262	-676.01154	173.81355	159.17068	-796.49231	180.17825	184.24651	-528.10962	304.55966	146.68864	-517.51251	-72.72052	143.39577	-875.92334	-78.69724	141.39668	-882.53662	296.25159	144.82765	
248	4.940	-730.82104	107.85400	1845.80994	-709.13422	-67.67818	1534.93469	-719.03601	287.87033	1542.01257	-606.55817	110.87765	1360.78552	-572.03107	-3.75010	1079.85474	-604.54950	250.45253	1067.88379	-797.94995	98.77972	1054.32007	-657.05151	-67.67032	875.45697	-581.31671	-1.56030	806.81317	-679.18597	-56.58234	760.62982	-702.82605	-33.29636	618.24780	-686.99725	75.66446	573.94617	-709.86810	-30.89157	570.47180	-660.89880	16.36777	520.11920	-754.41785	-43.16516	490.85318	-759.04004	-21.11034	207.91844	-648.56354	-68.35296	161.49773	-605.49982	-73.32738	158.11407	-547.87714	-24.43271	162.65732	-599.87549	27.29490	168.28214	-719.03583	69.00059	216.71040	-674.72217	52.34226	160.22115	-793.54773	37.18893	174.59972	-685.07410	288.45514	874.40082	-588.24127	228.44048	794.42529	-694.19067	274.49948	745.54761	-725.60962	255.74928	644.29987	-691.45752	148.98141	577.29993	-729.15979	251.87180	577.15466	-675.90845	210.47296	535.45630	-769.33264	261.31989	502.99838	-768.75598	229.29257	205.28772	-659.94495	298.15222	157.16682	-623.71667	306.60648	158.63393	-556.80792	255.90469	163.79915	-592.81262	218.43440	173.94165	-712.72638	154.98659	218.08784	-675.99127	173.80579	159.17274	-796.50873	180.14861	184.24023	-528.11865	304.57306	146.72894	-517.49182	-72.72626	143.41783	-875.92114	-78.72215	141.38034	-882.51263	296.26468	144.82832	
249	4.960	-727.88147	107.55765	1846.01953	-707.66510	-67.97405	1534.96790	-717.68384	287.57056	1542.01685	-605.59875	110.62292	1360.61841	-572.66986	-3.73270	1079.45593	-604.28394	249.98608	1068.04956	-797.74994	98.51105	1054.47253	-656.90790	-67.85236	875.45392	-581.31622	-1.69695	806.74731	-679.19043	-56.73783	760.60736	-702.80316	-33.42492	618.24896	-687.09387	75.46746	573.94385	-709.90082	-30.97277	570.47400	-661.00122	16.29658	520.06836	-754.37817	-43.34515	490.76517	-758.99951	-21.12991	207.94772	-648.56549	-68.36420	161.49403	-605.49048	-73.33916	158.13040	-547.87231	-24.42969	162.64651	-599.87793	27.32981	168.24355	-719.09827	68.90306	216.63605	-674.73303	52.36731	160.24001	-793.58722	37.18608	174.65933	-684.96356	288.17691	874.36755	-588.15363	228.25446	794.37079	-694.09528	274.33780	745.54425	-725.56213	255.61293	644.29236	-691.37146	148.93005	577.29163	-729.07581	251.70903	577.20343	-675.80658	210.25726	535.43982	-769.20227	261.12643	502.91565	-768.75824	229.26552	205.29243	-659.96179	298.12354	157.15967	-623.72107	306.59756	158.62793	-556.79944	255.91920	163.80971	-592.78839	218.40010	173.92209	-712.75665	154.93503	218.05531	-675.97052	173.79036	159.16489	-796.50739	180.11295	184.22934	-528.11554	304.58640	146.76430	-517.46588	-72.73322	143.42659	-875.91925	-78.73328	141.36743	-882.49481	296.27139	144.82063	
250	4.980	-724.76550	107.30266	1846.23962	-706.13776	-68.28355	1534.99451	-716.24091	287.25616	1542.04553	-604.61896	110.37593	1360.44788	-573.39478	-3.71900	1079.02673	-604.01434	249.41151	1068.17029	-797.59363	98.29234	1054.59326	-656.82068	-68.01515	875.43329	-581.35089	-1.89968	806.65546	-679.21692	-56.89297	760.56763	-702.77301	-33.53119	618.26569	-687.20221	75.28204	573.94537	-709.94611	-31.05921	570.48358	-661.11230	16.26272	520.02625	-754.35956	-43.51432	490.67151	-758.97626	-21.13646	207.96596	-648.55353	-68.37530	161.49745	-605.50031	-73.35001	158.13905	-547.87195	-24.42884	162.64897	-599.87421	27.37736	168.19789	-719.14697	68.80948	216.56894	-674.74506	52.39300	160.25697	-793.59326	37.18780	174.67108	-684.85638	287.99609	874.36505	-588.12061	228.04790	794.30847	-694.01740	274.12173	745.48877	-725.54242	255.47803	644.27545	-691.33405	148.86511	577.28552	-729.01050	251.55682	577.20239	-675.72363	210.04530	535.42639	-769.10950	260.96371	502.86819	-768.76294	229.23526	205.30495	-659.95868	298.08411	157.17139	-623.72327	306.59348	158.62236	-556.78271	255.93274	163.81429	-592.77460	218.36751	173.89282	-712.76862	154.88797	218.05247	-675.95459	173.76695	159.14326	-796.49182	180.07370	184.22237	-528.10358	304.59174	146.77777	-517.44507	-72.74340	143.41881	-875.92279	-78.72616	141.36603	-882.48969	296.27271	144.80840	
251	5.000	-721.45410	107.09492	1846.46619	-704.55164	-68.63055	1535.00659	-714.69617	286.92682	1542.10913	-603.61908	110.12291	1360.27783	-574.20685	-3.70949	1078.56702	-603.74243	248.75273	1068.24377	-797.47858	98.11984	1054.67993	-656.80731	-68.18214	875.39117	-581.40277	-2.15962	806.54193	-679.26355	-57.04339	760.49994	-702.74707	-33.61779	618.28979	-687.32007	75.11559	573.93219	-710.00885	-31.13985	570.47949	-661.19647	16.22556	520.01099	-754.39618	-43.63361	490.58014	-758.99243	-21.12145	207.95570	-648.53979	-68.38310	161.50340	-605.52576	-73.35357	158.13699	-547.88275	-24.43648	162.66405	-599.87036	27.42332	168.15126	-719.15918	68.76242	216.53957	-674.75824	52.41740	160.26663	-793.56909	37.20233	174.63425	-684.76660	287.88855	874.38831	-588.12567	227.83121	794.24084	-693.96381	273.86249	745.39368	-725.54645	255.32248	644.24792	-691.35516	148.78958	577.27368	-728.96356	251.41006	577.15265	-675.67511	209.85632	535.41620	-769.06360	260.85400	502.86972	-768.76135	229.19125	205.32428	-659.93958	298.03949	157.20242	-623.72766	306.59189	158.61873	-556.76184	255.94640	163.81198	-592.76910	218.33499	173.85884	-712.75598	154.84518	218.07062	-675.94385	173.74037	159.11432	-796.47308	180.03566	184.22562	-528.09015	304.58691	146.76335	-517.43701	-72.76150	143.40453	-875.93274	-78.70664	141.37560	-882.49591	296.26953	144.79446	
252	5.020	-717.91833	106.93253	1846.69568	-702.90753	-69.02011	1535.00476	-713.04944	286.58203	1542.20569	-602.59833	109.83604	1360.09949	-575.10724	-3.70467	1078.07654	-603.47980	248.06758	1068.27710	-797.40314	97.97334	1054.75403	-656.87769	-68.37120	875.32959	-581.46631	-2.43799	806.42444	-679.33716	-57.18359	760.41266	-702.75311	-33.68308	618.30505	-687.44043	74.97748	573.89252	-710.10132	-31.19862	570.44598	-661.22992	16.14576	520.03198	-754.51300	-43.69155	490.50339	-759.04346	-21.08969	207.91916	-648.53119	-68.38293	161.50706	-605.55798	-73.34767	158.13100	-547.90302	-24.45455	162.68385	-599.87152	27.45419	168.11024	-719.12726	68.78140	216.55849	-674.76422	52.43243	160.26018	-793.52747	37.23947	174.56224	-684.72131	287.81128	874.42188	-588.15839	227.61719	794.17303	-693.94275	273.59167	745.29138	-725.58081	255.13275	644.20990	-691.43176	148.70021	577.24780	-728.93933	251.26808	577.07666	-675.66821	209.70166	535.41949	-769.05786	260.79294	502.90369	-768.74969	229.13196	205.34341	-659.91528	298.00113	157.24263	-623.73810	306.59146	158.61714	-556.73914	255.95804	163.80211	-592.76550	218.30171	173.82738	-712.73676	154.81773	218.08801	-675.93451	173.71678	159.08846	-796.46063	180.00255	184.23953	-528.08325	304.57697	146.72784	-517.44550	-72.78753	143.39561	-875.94550	-78.68628	141.39124	-882.50641	296.26254	144.78156	
